<mxfile host="app.diagrams.net">
    <diagram name="第 1 页" id="nYswJ3oYlL-5v3RkydyH">
        <mxGraphModel dx="1026" dy="579" grid="1" gridSize="10" guides="1" tooltips="1" connect="1" arrows="1" fold="1" page="1" pageScale="1" pageWidth="827" pageHeight="1169" math="0" shadow="0">
            <root>
                <mxCell id="0" />
                <mxCell id="1" parent="0" />
                <!-- 开始节点 -->
                <mxCell id="Start" value="开始" style="ellipse;whiteSpace=wrap;html=1;fillColor=#96FF96;" vertex="1" parent="1">
                    <mxGeometry x="100" y="50" width="80" height="40" as="geometry" />
                </mxCell>
                <!-- 流程步骤 -->
                <mxCell id="Step1" value="输入订单" style="rounded=0;whiteSpace=wrap;html=1;" vertex="1" parent="1">
                    <mxGeometry x="90" y="120" width="100" height="40" as="geometry" />
                </mxCell>
                <mxCell id="Step2" value="检查库存" style="rounded=0;whiteSpace=wrap;html=1;" vertex="1" parent="1">
                    <mxGeometry x="90" y="200" width="100" height="40" as="geometry" />
                </mxCell>
                <!-- 判断节点 -->
                <mxCell id="Decision" value="库存充足？" style="rhombus;whiteSpace=wrap;html=1;fillColor=#FFF2CC;" vertex="1" parent="1">
                    <mxGeometry x="90" y="280" width="100" height="80" as="geometry" />
                </mxCell>
                <!-- 分支路径 -->
                <mxCell id="Yes" value="Yes" style="edgeLabel;html=1;align=center;verticalAlign=middle;resizable=0;points=[];" vertex="1" connectable="0" parent="1">
                    <mxGeometry x="-0.3" y="-3" relative="1" as="geometry">
                        <mxPoint as="offset" />
                    </mxGeometry>
                </mxCell>
                <mxCell id="No" value="No" style="edgeLabel;html=1;align=center;verticalAlign=middle;resizable=0;points=[];" vertex="1" connectable="0" parent="1">
                    <mxGeometry x="-0.3" y="-3" relative="1" as="geometry">
                        <mxPoint as="offset" />
                    </mxGeometry>
                </mxCell>
                <!-- 结束节点 -->
                <mxCell id="End" value="结束" style="ellipse;whiteSpace=wrap;html=1;fillColor=#FF6666;" vertex="1" parent="1">
                    <mxGeometry x="100" y="500" width="80" height="40" as="geometry" />
                </mxCell>
                <!-- 其他步骤 -->
                <mxCell id="Step3" value="联系供应商" style="rounded=0;whiteSpace=wrap;html=1;" vertex="1" parent="1">
                    <mxGeometry x="300" y="280" width="100" height="40" as="geometry" />
                </mxCell>
                <mxCell id="Step4" value="生成发货单" style="rounded=0;whiteSpace=wrap;html=1;" vertex="1" parent="1">
                    <mxGeometry x="90" y="400" width="100" height="40" as="geometry" />
                </mxCell>
                <!-- 连接线 -->
                <mxCell id="conn1" value="" style="endArrow=classic;html=1;" edge="1" parent="1" source="Start" target="Step1">
                    <mxGeometry relative="1" as="geometry" />
                </mxCell>
                <mxCell id="conn2" value="" style="endArrow=classic;html=1;" edge="1" parent="1" source="Step1" target="Step2">
                    <mxGeometry relative="1" as="geometry" />
                </mxCell>
                <mxCell id="conn3" value="" style="endArrow=classic;html=1;" edge="1" parent="1" source="Step2" target="Decision">
                    <mxGeometry relative="1" as="geometry" />
                </mxCell>
                <mxCell id="conn4" value="" style="endArrow=classic;html=1;dashed=1;" edge="1" parent="1" source="Decision" target="Step3">
                    <mxGeometry relative="1" as="geometry">
                        <mxPoint x="440" y="320" as="targetPoint" />
                    </mxGeometry>
                </mxCell>
                <mxCell id="conn5" value="" style="endArrow=classic;html=1;" edge="1" parent="1" source="Decision" target="Step4">
                    <mxGeometry relative="1" as="geometry">
                        <mxPoint x="140" y="400" as="targetPoint" />
                    </mxGeometry>
                </mxCell>
                <mxCell id="conn6" value="" style="endArrow=classic;html=1;" edge="1" parent="1" source="Step4" target="End">
                    <mxGeometry relative="1" as="geometry" />
                </mxCell>
                <!-- 标签附加到连接线 -->
                <mxCell id="labelYes" value="Yes" style="text;html=1;align=center;verticalAlign=middle;resizable=0;points=[];" vertex="1" parent="1" connectable="0">
                    <mxGeometry x="130" y="340" width="40" height="20" as="geometry" />
                </mxCell>
                <mxCell id="labelNo" value="No" style="text;html=1;align=center;verticalAlign=middle;resizable=0;points=[];" vertex="1" parent="1" connectable="0">
                    <mxGeometry x="220" y="300" width="40" height="20" as="geometry" />
                </mxCell>
            </mxGraphModel>
        </diagram>
    </mxfile>
</mxfile>
